# xmcd CD database file
#
# Track frame offsets:
#	150
#	20865
#	57275
#	75355
#	97160
#	114070
#	145967
#	177570
#	203285
#	221175
#
# Disc length: 3307 seconds
#
# Revision: 0
# Processed by: cddbd v1.5PL3 Copyright (c) Steve Scherf et al.
# Submitted via: CDex 1.50Beta7
#
DISCID=890ce90a
DTITLE=Eugene Maslov - The Face Of Love
DYEAR=1999
DGENRE=Jazz
TTITLE0=Chan's Song (Never Said)
TTITLE1=More Love
TTITLE2=Them There Eyes
TTITLE3=The Face Of Love
TTITLE4=Seven Steps To Heaven
TTITLE5=Peacocks
TTITLE6=Bluesette
TTITLE7=Groove Merchant
TTITLE8=Through Russian Eyes
TTITLE9=Come Back To Me Love
EXTD=YEAR: 1999
EXTT0=
EXTT1=
EXTT2=
EXTT3=
EXTT4=
EXTT5=
EXTT6=
EXTT7=
EXTT8=
EXTT9=
PLAYORDER=
